<?xml version="1.0" encoding="UTF-8"?>
<svg xmlns="http://www.w3.org/2000/svg" viewBox="0 0 1000 1000">
<rect width="1000" height="1000" rx="120" fill="#050505"/>
<circle cx="500" cy="500" r="460" fill="none" stroke="#f5c400" stroke-width="18"/>
<g font-family="Arial,Helvetica,sans-serif" text-anchor="middle">
  <text x="500" y="395" font-size="82" font-weight="900" font-style="italic" fill="#fff" stroke="#050505" stroke-width="18" paint-order="stroke">DISTRIBUIDORA</text>
  <text x="500" y="535" font-size="180" font-weight="900" font-style="italic" fill="#f5c400" stroke="#050505" stroke-width="22" paint-order="stroke">ZIPPER</text>
  <path d="M220 565 Q500 505 780 565" fill="none" stroke="#f5c400" stroke-width="20" stroke-linecap="round"/>
</g>
<!-- papelillos -->
<g transform="translate(115 125) rotate(-8)">
  <rect x="0" y="35" width="245" height="125" rx="14" fill="#c99d61" stroke="#fff" stroke-width="5"/>
  <rect x="20" y="55" width="205" height="85" rx="8" fill="#e8c996"/>
  <text x="122" y="108" font-family="Arial" font-size="30" font-weight="900" text-anchor="middle" fill="#111">PAPELILLOS</text>
  <path d="M40 170 l130 0 40 45 -130 0z" fill="#f5f0df"/>
  <path d="M35 205 l130 0 35 38 -130 0z" fill="#fff"/>
</g>
<!-- encendedores -->
<g transform="translate(700 120) rotate(7)">
  <rect x="0" y="0" width="62" height="180" rx="20" fill="#e53935" stroke="#fff" stroke-width="5"/>
  <rect x="72" y="25" width="62" height="180" rx="20" fill="#1688d8" stroke="#fff" stroke-width="5"/>
  <rect x="144" y="5" width="62" height="180" rx="20" fill="#f5b400" stroke="#fff" stroke-width="5"/>
  <rect x="216" y="35" width="62" height="180" rx="20" fill="#222" stroke="#fff" stroke-width="5"/>
  <g fill="#bbb"><rect x="12" y="-15" width="38" height="30" rx="8"/><rect x="84" y="10" width="38" height="30" rx="8"/><rect x="156" y="-10" width="38" height="30" rx="8"/><rect x="228" y="20" width="38" height="30" rx="8"/></g>
</g>
<!-- caramelos -->
<g>
 <g transform="translate(720 300)"><path d="M0 35 Q45 0 90 35 Q45 70 0 35z" fill="#ffcf22"/><path d="M0 35 l-35 -22 10 22 -10 22zM90 35 l35 -22 -10 22 10 22z" fill="#ff5a7a"/></g>
 <g transform="translate(820 345)"><path d="M0 35 Q45 0 90 35 Q45 70 0 35z" fill="#28c76f"/><path d="M0 35 l-35 -22 10 22 -10 22zM90 35 l35 -22 -10 22 10 22z" fill="#ff4d4d"/></g>
</g>
<!-- lower category icons -->
<g font-family="Arial,Helvetica,sans-serif" text-anchor="middle" fill="#fff" font-weight="700">
 <circle cx="235" cy="690" r="62" fill="#090909" stroke="#f5c400" stroke-width="10"/><path d="M200 690 h70 l18 22 h-70z" fill="#fff"/><text x="235" y="790" font-size="27">PAPELILLOS</text>
 <circle cx="405" cy="690" r="62" fill="#090909" stroke="#f5c400" stroke-width="10"/><path d="M375 710 q30 -65 60 0 q-30 -15 -60 0z" fill="#fff"/><text x="405" y="790" font-size="27">TABACO</text>
 <circle cx="595" cy="690" r="62" fill="#090909" stroke="#f5c400" stroke-width="10"/><rect x="575" y="660" width="40" height="70" rx="8" fill="#fff"/><path d="M595 650 q-20 -25 5 -45 q20 25 0 45" fill="#f5c400"/><text x="595" y="790" font-size="24">ENCENDEDORES</text>
 <circle cx="765" cy="690" r="62" fill="#090909" stroke="#f5c400" stroke-width="10"/><path d="M735 690 q30 -25 60 0 q-30 25 -60 0z" fill="#fff"/><path d="M735 690 l-22 -15 8 15 -8 15zM795 690 l22 -15 -8 15 8 15z" fill="#ffcf22"/><text x="765" y="790" font-size="27">CARAMELOS</text>
</g>
<text x="500" y="885" font-family="Arial,Helvetica,sans-serif" font-size="34" font-style="italic" font-weight="700" text-anchor="middle" fill="#f5c400">Todo lo que necesitas, en un solo lugar</text>
</svg>